<svg width="90" height="90" viewBox="0 0 90 90" fill="none" xmlns="http://www.w3.org/2000/svg">
<path d="M71.267 2H19.013C9.61696 2 2 9.61696 2 19.013V71.267C2 80.663 9.61696 88.28 19.013 88.28H71.267C80.663 88.28 88.28 80.663 88.28 71.267V19.013C88.28 9.61696 80.663 2 71.267 2Z" fill="white" stroke="black" stroke-width="2.43042"/>
<path d="M73.99 21.4696H16.1692C15.0552 21.4696 14.1521 22.3728 14.1521 23.4866V33.5284H76.0071V23.4866C76.0071 22.3728 75.104 21.4696 73.99 21.4696ZM53.0874 30.1884C51.6044 30.1884 50.398 28.982 50.398 27.499C50.398 26.0161 51.6044 24.8096 53.0874 24.8096C54.5703 24.8096 55.7768 26.0161 55.7768 27.499C55.7768 28.982 54.5703 30.1884 53.0874 30.1884ZM60.4136 30.1884C58.9306 30.1884 57.7242 28.982 57.7242 27.499C57.7242 26.0161 58.9306 24.8096 60.4136 24.8096C61.8965 24.8096 63.103 26.0161 63.103 27.499C63.103 28.982 61.8965 30.1884 60.4136 30.1884ZM67.7398 30.1884C66.2568 30.1884 65.0504 28.982 65.0504 27.499C65.0504 26.0161 66.2568 24.8096 67.7398 24.8096C69.2227 24.8096 70.4291 26.0161 70.4291 27.499C70.4291 28.982 69.2227 30.1884 67.7398 30.1884Z" fill="black"/>
<path d="M14.1521 37.5624V66.5162C14.1521 67.6301 15.0552 68.5333 16.1692 68.5333H73.9901C75.104 68.5333 76.0072 67.6302 76.0072 66.5162V37.5624H14.1521ZM42.5969 54.584L35.9943 60.2022C35.146 60.9241 33.873 60.8216 33.151 59.9731C32.429 59.1248 32.5316 57.8518 33.3801 57.1298L38.1773 53.0478L33.3801 48.9657C32.5316 48.2437 32.4292 46.9709 33.151 46.1224C33.8729 45.2739 35.146 45.1715 35.9943 45.8934L42.5969 51.5115C43.5429 52.3165 43.5429 53.7792 42.5969 54.584ZM55.472 60.683H47.504C46.3901 60.683 45.487 59.7799 45.487 58.6659C45.487 57.5519 46.39 56.6489 47.504 56.6489H55.472C56.5858 56.6489 57.489 57.5519 57.489 58.6659C57.489 59.7799 56.5858 60.683 55.472 60.683Z" fill="black"/>
</svg>
